<?xml version="1.0" standalone="no"?>
<svg width="560" height="560" xmlns="http://www.w3.org/2000/svg">
<style>
path { fill: none; }
path.spiral { stroke: steelblue; }
.axis path, .axis line { stroke: #000; shape-rendering: crispEdges; }
</style>

<g transform="translate(40,20)"><g class="x axis" transform="translate(0,250)" fill="none" font-size="10" font-family="sans-serif" text-anchor="middle"><path class="domain" stroke="#000" d="M0.5,6V0.5H500.5V6"></path><g class="tick" opacity="1" transform="translate(33.833333333333364,0)"><line stroke="#000" y2="6"></line><text fill="#000" y="9" dy="0.71em">2.6</text></g><g class="tick" opacity="1" transform="translate(100.49999999999994,0)"><line stroke="#000" y2="6"></line><text fill="#000" y="9" dy="0.71em">2.8</text></g><g class="tick" opacity="1" transform="translate(167.16666666666666,0)"><line stroke="#000" y2="6"></line><text fill="#000" y="9" dy="0.71em">3.0</text></g><g class="tick" opacity="1" transform="translate(233.8333333333334,0)"><line stroke="#000" y2="6"></line><text fill="#000" y="9" dy="0.71em">3.2</text></g><g class="tick" opacity="1" transform="translate(300.5,0)"><line stroke="#000" y2="6"></line><text fill="#000" y="9" dy="0.71em">3.4</text></g><g class="tick" opacity="1" transform="translate(367.1666666666667,0)"><line stroke="#000" y2="6"></line><text fill="#000" y="9" dy="0.71em">3.6</text></g><g class="tick" opacity="1" transform="translate(433.8333333333333,0)"><line stroke="#000" y2="6"></line><text fill="#000" y="9" dy="0.71em">3.8</text></g><g class="tick" opacity="1" transform="translate(500.5,0)"><line stroke="#000" y2="6"></line><text fill="#000" y="9" dy="0.71em">4.0</text></g></g><path class="spiral" d="M 500 250 A 1.3333333333333333 1.3333333333333333 0 0 0 55.55555555555566 250 A 0.8 0.8 0 0 0 322.22222222222223 250 A 0.5714285714285714 0.5714285714285714 0 0 0 131.74603174603186 250 A 0.4444444444444444 0.4444444444444444 0 0 0 279.89417989418007 250 A 0.36363636363636365 0.36363636363636365 0 0 0 158.68205868205885 250 A 0.3076923076923077 0.3076923076923077 0 0 0 261.2461612461615 250 A 0.26666666666666666 0.26666666666666666 0 0 0 172.35727235727262 250 A 0.23529411764705882 0.23529411764705882 0 0 0 250.7886449062922 250 A 0.21052631578947367 0.21052631578947367 0 0 0 180.6132063098011 250 A 0.19047619047619047 0.19047619047619047 0 0 0 244.10526980186464 250 A 0.17391304347826086 0.17391304347826086 0 0 0 186.13425530911107 250 A 0.16 0.16 0 0 0 239.46758864244444 250 A 0.14814814814814814 0.14814814814814814 0 0 0 190.08487259306182 250 A 0.13793103448275862 0.13793103448275862 0 0 0 236.06188408731464 250 A 0.12903225806451613 0.12903225806451613 0 0 0 193.05113139914263 250 A 0.12121212121212122 0.12121212121212122 0 0 0 233.455171803183 250 A 0.11428571428571428 0.11428571428571428 0 0 0 195.3599337079449 250 A 0.10810810810810811 0.10810810810810811 0 0 0 231.39596974398083 250 A 0.10256410256410256 0.10256410256410256 0 0 0 197.20793555594662 250 A 0.0975609756097561 0.0975609756097561 0 0 0 229.7282607591987 250 A 0.09302325581395349 0.09302325581395349 0 0 0 198.72050882121414 250 A 0.08888888888888889 0.08888888888888889 0 0 0 228.35013845084382 250 A 0.0851063829787234 0.0851063829787234 0 0 0 199.98134412460263 250 A 0.08163265306122448 0.08163265306122448 0 0 0 227.19222847834416 250 A 0.0784313725490196 0.0784313725490196 0 0 0 201.04843762867088 250 A 0.07547169811320754 0.07547169811320754 0 0 0 226.2056703330734 250 A 0.07272727272727272 0.07272727272727272 0 0 0 201.96324609064916 250 A 0.07017543859649122 0.07017543859649122 0 0 0 225.35505895614617 250 A 0.06779661016949153 0.06779661016949153 0 0 0 202.75618889964906 250 A 0.06557377049180328 0.06557377049180328 0 0 0 224.61411239691682 250 A 0.06349206349206349 0.06349206349206349 0 0 0 203.45009123289574 250 A 0.06153846153846154 0.06153846153846154 0 0 0 223.96291174571618 250 A 0.05970149253731343 0.05970149253731343 0 0 0 204.0624142332783 250 A 0.057971014492753624 0.057971014492753624 0 0 0 223.3860857308628 250 A 0.056338028169014086 0.056338028169014086 0 0 0 204.6067430078581 250 A 0.0547945205479452 0.0547945205479452 0 0 0 222.87158319050644 250 A 0.05333333333333334 0.05333333333333334 0 0 0 205.0938054127287 250 A 0.05194805194805195 0.05194805194805195 0 0 0 222.409822728746 250 A 0.05063291139240506 0.05063291139240506 0 0 0 205.5321855979444 250 A 0.04938271604938271 0.04938271604938271 0 0 0 221.99309094773855 250 A 0.04819277108433735 0.04819277108433735 0 0 0 205.92883391962604 250 A 0.047058823529411764 0.047058823529411764 0 0 0 221.6151084294299 250 A 0.04597701149425287 0.04597701149425287 0 0 0 206.28943793134565 250 A 0.0449438202247191 0.0449438202247191 0 0 0 221.2707113395854 250 A 0.04395604395604396 0.04395604395604396 0 0 0 206.6186966875708 250 A 0.043010752688172046 0.043010752688172046 0 0 0 220.9556142502948 250 A 0.042105263157894736 0.042105263157894736 0 0 0 206.92052653099648 250 A 0.041237113402061855 0.041237113402061855 0 0 0 220.6662309983504 250 A 0.04040404040404041 0.04040404040404041 0 0 0 207.198217530337 250"></path></g></svg>